<mxfile host="app.diagrams.net" modified="2023-10-26T09:05:11.116Z" agent="Mozilla/5.0 (Windows NT 10.0; Win64; x64) AppleWebKit/537.36 (KHTML, like Gecko) Chrome/118.0.0.0 Safari/537.36" etag="VjmXCw1qO_MciT99yBdZ" version="22.0.8" type="device">
  <diagram name="Page-1" id="EMvmvdSsAzsaudAp8O5D">
    <mxGraphModel dx="1050" dy="2613" grid="1" gridSize="10" guides="1" tooltips="1" connect="1" arrows="1" fold="1" page="1" pageScale="1" pageWidth="1500" pageHeight="2000" math="0" shadow="0">
      <root>
        <mxCell id="0" />
        <mxCell id="1" parent="0" />
        <mxCell id="7nrROqvI5BCmx5nNmekA-22" style="rounded=0;orthogonalLoop=1;jettySize=auto;html=1;exitX=1;exitY=1;exitDx=0;exitDy=0;endArrow=none;endFill=0;" edge="1" parent="1" source="7nrROqvI5BCmx5nNmekA-1" target="7nrROqvI5BCmx5nNmekA-21">
          <mxGeometry relative="1" as="geometry" />
        </mxCell>
        <mxCell id="7nrROqvI5BCmx5nNmekA-27" style="edgeStyle=orthogonalEdgeStyle;rounded=0;orthogonalLoop=1;jettySize=auto;html=1;exitX=0;exitY=0.25;exitDx=0;exitDy=0;entryX=0.5;entryY=0;entryDx=0;entryDy=0;endArrow=none;endFill=0;" edge="1" parent="1" source="7nrROqvI5BCmx5nNmekA-1" target="7nrROqvI5BCmx5nNmekA-26">
          <mxGeometry relative="1" as="geometry" />
        </mxCell>
        <mxCell id="7nrROqvI5BCmx5nNmekA-94" style="rounded=0;orthogonalLoop=1;jettySize=auto;html=1;exitX=0.5;exitY=1;exitDx=0;exitDy=0;entryX=0.5;entryY=0;entryDx=0;entryDy=0;endArrow=none;endFill=0;" edge="1" parent="1" source="7nrROqvI5BCmx5nNmekA-1" target="7nrROqvI5BCmx5nNmekA-93">
          <mxGeometry relative="1" as="geometry" />
        </mxCell>
        <mxCell id="7nrROqvI5BCmx5nNmekA-1" value="KORISNIK" style="rounded=0;whiteSpace=wrap;html=1;" vertex="1" parent="1">
          <mxGeometry x="480" y="150" width="120" height="60" as="geometry" />
        </mxCell>
        <mxCell id="7nrROqvI5BCmx5nNmekA-15" style="rounded=0;orthogonalLoop=1;jettySize=auto;html=1;exitX=1;exitY=1;exitDx=0;exitDy=0;entryX=0.25;entryY=0;entryDx=0;entryDy=0;endArrow=none;endFill=0;" edge="1" parent="1" source="7nrROqvI5BCmx5nNmekA-2" target="7nrROqvI5BCmx5nNmekA-1">
          <mxGeometry relative="1" as="geometry" />
        </mxCell>
        <mxCell id="7nrROqvI5BCmx5nNmekA-2" value="ime" style="ellipse;whiteSpace=wrap;html=1;" vertex="1" parent="1">
          <mxGeometry x="270" y="40" width="100" height="50" as="geometry" />
        </mxCell>
        <mxCell id="7nrROqvI5BCmx5nNmekA-14" style="rounded=0;orthogonalLoop=1;jettySize=auto;html=1;exitX=1;exitY=1;exitDx=0;exitDy=0;entryX=0.5;entryY=0;entryDx=0;entryDy=0;endArrow=none;endFill=0;" edge="1" parent="1" source="7nrROqvI5BCmx5nNmekA-3" target="7nrROqvI5BCmx5nNmekA-1">
          <mxGeometry relative="1" as="geometry" />
        </mxCell>
        <mxCell id="7nrROqvI5BCmx5nNmekA-3" value="prezime" style="ellipse;whiteSpace=wrap;html=1;" vertex="1" parent="1">
          <mxGeometry x="370" y="10" width="100" height="50" as="geometry" />
        </mxCell>
        <mxCell id="7nrROqvI5BCmx5nNmekA-13" style="rounded=0;orthogonalLoop=1;jettySize=auto;html=1;exitX=0.5;exitY=1;exitDx=0;exitDy=0;entryX=0.75;entryY=0;entryDx=0;entryDy=0;endArrow=none;endFill=0;" edge="1" parent="1" source="7nrROqvI5BCmx5nNmekA-4" target="7nrROqvI5BCmx5nNmekA-1">
          <mxGeometry relative="1" as="geometry" />
        </mxCell>
        <mxCell id="7nrROqvI5BCmx5nNmekA-4" value="korisnicko&amp;nbsp;&lt;br&gt;ime" style="ellipse;whiteSpace=wrap;html=1;" vertex="1" parent="1">
          <mxGeometry x="490" y="10" width="100" height="50" as="geometry" />
        </mxCell>
        <mxCell id="7nrROqvI5BCmx5nNmekA-12" style="rounded=0;orthogonalLoop=1;jettySize=auto;html=1;exitX=0.5;exitY=1;exitDx=0;exitDy=0;entryX=1;entryY=0;entryDx=0;entryDy=0;endArrow=none;endFill=0;" edge="1" parent="1" source="7nrROqvI5BCmx5nNmekA-5" target="7nrROqvI5BCmx5nNmekA-1">
          <mxGeometry relative="1" as="geometry" />
        </mxCell>
        <mxCell id="7nrROqvI5BCmx5nNmekA-5" value="&lt;u&gt;e-mail&lt;/u&gt;" style="ellipse;whiteSpace=wrap;html=1;" vertex="1" parent="1">
          <mxGeometry x="610" y="10" width="100" height="50" as="geometry" />
        </mxCell>
        <mxCell id="7nrROqvI5BCmx5nNmekA-11" style="rounded=0;orthogonalLoop=1;jettySize=auto;html=1;exitX=0;exitY=1;exitDx=0;exitDy=0;entryX=1;entryY=0.25;entryDx=0;entryDy=0;endArrow=none;endFill=0;" edge="1" parent="1" source="7nrROqvI5BCmx5nNmekA-6" target="7nrROqvI5BCmx5nNmekA-1">
          <mxGeometry relative="1" as="geometry" />
        </mxCell>
        <mxCell id="7nrROqvI5BCmx5nNmekA-6" value="datum na&lt;br&gt;raganje" style="ellipse;whiteSpace=wrap;html=1;" vertex="1" parent="1">
          <mxGeometry x="720" y="20" width="100" height="50" as="geometry" />
        </mxCell>
        <mxCell id="7nrROqvI5BCmx5nNmekA-10" style="rounded=0;orthogonalLoop=1;jettySize=auto;html=1;exitX=0;exitY=1;exitDx=0;exitDy=0;entryX=1;entryY=0.5;entryDx=0;entryDy=0;endArrow=none;endFill=0;" edge="1" parent="1" source="7nrROqvI5BCmx5nNmekA-7" target="7nrROqvI5BCmx5nNmekA-1">
          <mxGeometry relative="1" as="geometry" />
        </mxCell>
        <mxCell id="7nrROqvI5BCmx5nNmekA-7" value="datum na&amp;nbsp;&lt;br&gt;registracija" style="ellipse;whiteSpace=wrap;html=1;" vertex="1" parent="1">
          <mxGeometry x="770" y="80" width="100" height="50" as="geometry" />
        </mxCell>
        <mxCell id="7nrROqvI5BCmx5nNmekA-9" style="edgeStyle=orthogonalEdgeStyle;rounded=0;orthogonalLoop=1;jettySize=auto;html=1;exitX=0;exitY=0.5;exitDx=0;exitDy=0;entryX=1;entryY=0.75;entryDx=0;entryDy=0;endArrow=none;endFill=0;" edge="1" parent="1" source="7nrROqvI5BCmx5nNmekA-8" target="7nrROqvI5BCmx5nNmekA-1">
          <mxGeometry relative="1" as="geometry" />
        </mxCell>
        <mxCell id="7nrROqvI5BCmx5nNmekA-8" value="pol" style="ellipse;whiteSpace=wrap;html=1;" vertex="1" parent="1">
          <mxGeometry x="750" y="140" width="100" height="50" as="geometry" />
        </mxCell>
        <mxCell id="7nrROqvI5BCmx5nNmekA-23" style="rounded=0;orthogonalLoop=1;jettySize=auto;html=1;exitX=0;exitY=0.25;exitDx=0;exitDy=0;endArrow=none;endFill=0;shape=link;" edge="1" parent="1" source="7nrROqvI5BCmx5nNmekA-16" target="7nrROqvI5BCmx5nNmekA-21">
          <mxGeometry relative="1" as="geometry" />
        </mxCell>
        <mxCell id="7nrROqvI5BCmx5nNmekA-97" style="edgeStyle=orthogonalEdgeStyle;rounded=0;orthogonalLoop=1;jettySize=auto;html=1;exitX=0.5;exitY=0;exitDx=0;exitDy=0;entryX=0.5;entryY=0;entryDx=0;entryDy=0;shape=link;" edge="1" parent="1" source="7nrROqvI5BCmx5nNmekA-16" target="7nrROqvI5BCmx5nNmekA-26">
          <mxGeometry relative="1" as="geometry">
            <Array as="points">
              <mxPoint x="870" />
              <mxPoint x="230" />
              <mxPoint x="230" y="170" />
            </Array>
          </mxGeometry>
        </mxCell>
        <mxCell id="7nrROqvI5BCmx5nNmekA-16" value="LISTA" style="rounded=0;whiteSpace=wrap;html=1;" vertex="1" parent="1">
          <mxGeometry x="810" y="220" width="120" height="60" as="geometry" />
        </mxCell>
        <mxCell id="7nrROqvI5BCmx5nNmekA-20" style="edgeStyle=orthogonalEdgeStyle;rounded=0;orthogonalLoop=1;jettySize=auto;html=1;exitX=0;exitY=1;exitDx=0;exitDy=0;entryX=1;entryY=0.5;entryDx=0;entryDy=0;endArrow=none;endFill=0;" edge="1" parent="1" source="7nrROqvI5BCmx5nNmekA-17" target="7nrROqvI5BCmx5nNmekA-16">
          <mxGeometry relative="1" as="geometry" />
        </mxCell>
        <mxCell id="7nrROqvI5BCmx5nNmekA-17" value="ime" style="ellipse;whiteSpace=wrap;html=1;" vertex="1" parent="1">
          <mxGeometry x="950" y="98" width="100" height="50" as="geometry" />
        </mxCell>
        <mxCell id="7nrROqvI5BCmx5nNmekA-19" style="edgeStyle=orthogonalEdgeStyle;rounded=0;orthogonalLoop=1;jettySize=auto;html=1;exitX=0;exitY=0.5;exitDx=0;exitDy=0;entryX=1;entryY=0.75;entryDx=0;entryDy=0;endArrow=none;endFill=0;" edge="1" parent="1" source="7nrROqvI5BCmx5nNmekA-18" target="7nrROqvI5BCmx5nNmekA-16">
          <mxGeometry relative="1" as="geometry" />
        </mxCell>
        <mxCell id="7nrROqvI5BCmx5nNmekA-18" value="datum na&amp;nbsp;&lt;br&gt;kreiranje" style="ellipse;whiteSpace=wrap;html=1;" vertex="1" parent="1">
          <mxGeometry x="1000" y="188" width="100" height="50" as="geometry" />
        </mxCell>
        <mxCell id="7nrROqvI5BCmx5nNmekA-21" value="" style="rhombus;whiteSpace=wrap;html=1;" vertex="1" parent="1">
          <mxGeometry x="680" y="230" width="40" height="40" as="geometry" />
        </mxCell>
        <mxCell id="7nrROqvI5BCmx5nNmekA-24" value="N" style="text;html=1;align=center;verticalAlign=middle;resizable=0;points=[];autosize=1;strokeColor=none;fillColor=none;" vertex="1" parent="1">
          <mxGeometry x="605" y="198" width="30" height="30" as="geometry" />
        </mxCell>
        <mxCell id="7nrROqvI5BCmx5nNmekA-25" value="M" style="text;html=1;align=center;verticalAlign=middle;resizable=0;points=[];autosize=1;strokeColor=none;fillColor=none;" vertex="1" parent="1">
          <mxGeometry x="770" y="240" width="30" height="30" as="geometry" />
        </mxCell>
        <mxCell id="7nrROqvI5BCmx5nNmekA-28" style="rounded=0;orthogonalLoop=1;jettySize=auto;html=1;exitX=0.5;exitY=1;exitDx=0;exitDy=0;entryX=0;entryY=0.75;entryDx=0;entryDy=0;endArrow=none;endFill=0;" edge="1" parent="1" source="7nrROqvI5BCmx5nNmekA-26" target="7nrROqvI5BCmx5nNmekA-1">
          <mxGeometry relative="1" as="geometry" />
        </mxCell>
        <mxCell id="7nrROqvI5BCmx5nNmekA-26" value="" style="rhombus;whiteSpace=wrap;html=1;" vertex="1" parent="1">
          <mxGeometry x="270" y="170" width="40" height="40" as="geometry" />
        </mxCell>
        <mxCell id="7nrROqvI5BCmx5nNmekA-29" value="N" style="text;html=1;align=center;verticalAlign=middle;resizable=0;points=[];autosize=1;strokeColor=none;fillColor=none;" vertex="1" parent="1">
          <mxGeometry x="435" y="138" width="30" height="30" as="geometry" />
        </mxCell>
        <mxCell id="7nrROqvI5BCmx5nNmekA-30" value="M" style="text;html=1;align=center;verticalAlign=middle;resizable=0;points=[];autosize=1;strokeColor=none;fillColor=none;" vertex="1" parent="1">
          <mxGeometry x="435" y="198" width="30" height="30" as="geometry" />
        </mxCell>
        <mxCell id="7nrROqvI5BCmx5nNmekA-31" value="spodeluvanje" style="text;html=1;align=center;verticalAlign=middle;resizable=0;points=[];autosize=1;strokeColor=none;fillColor=none;" vertex="1" parent="1">
          <mxGeometry x="295" y="168" width="90" height="30" as="geometry" />
        </mxCell>
        <mxCell id="7nrROqvI5BCmx5nNmekA-32" value="isprakac" style="text;html=1;align=center;verticalAlign=middle;resizable=0;points=[];autosize=1;strokeColor=none;fillColor=none;" vertex="1" parent="1">
          <mxGeometry x="305" y="118" width="70" height="30" as="geometry" />
        </mxCell>
        <mxCell id="7nrROqvI5BCmx5nNmekA-33" value="primac" style="text;html=1;align=center;verticalAlign=middle;resizable=0;points=[];autosize=1;strokeColor=none;fillColor=none;" vertex="1" parent="1">
          <mxGeometry x="280" y="218" width="60" height="30" as="geometry" />
        </mxCell>
        <mxCell id="7nrROqvI5BCmx5nNmekA-37" style="rounded=0;orthogonalLoop=1;jettySize=auto;html=1;exitX=1;exitY=1;exitDx=0;exitDy=0;entryX=0;entryY=0;entryDx=0;entryDy=0;endArrow=none;endFill=0;" edge="1" parent="1" source="7nrROqvI5BCmx5nNmekA-34" target="7nrROqvI5BCmx5nNmekA-26">
          <mxGeometry relative="1" as="geometry" />
        </mxCell>
        <mxCell id="7nrROqvI5BCmx5nNmekA-34" value="datum na&lt;br&gt;sopdeluvanje" style="ellipse;whiteSpace=wrap;html=1;" vertex="1" parent="1">
          <mxGeometry x="80" y="140" width="100" height="50" as="geometry" />
        </mxCell>
        <mxCell id="7nrROqvI5BCmx5nNmekA-36" style="rounded=0;orthogonalLoop=1;jettySize=auto;html=1;exitX=1;exitY=0;exitDx=0;exitDy=0;entryX=0;entryY=0.5;entryDx=0;entryDy=0;endArrow=none;endFill=0;" edge="1" parent="1" source="7nrROqvI5BCmx5nNmekA-35" target="7nrROqvI5BCmx5nNmekA-26">
          <mxGeometry relative="1" as="geometry" />
        </mxCell>
        <mxCell id="7nrROqvI5BCmx5nNmekA-35" value="komentar" style="ellipse;whiteSpace=wrap;html=1;" vertex="1" parent="1">
          <mxGeometry x="100" y="220" width="100" height="50" as="geometry" />
        </mxCell>
        <mxCell id="7nrROqvI5BCmx5nNmekA-43" value="" style="rounded=0;orthogonalLoop=1;jettySize=auto;html=1;endArrow=none;endFill=0;shape=link;" edge="1" parent="1" source="7nrROqvI5BCmx5nNmekA-38" target="7nrROqvI5BCmx5nNmekA-42">
          <mxGeometry relative="1" as="geometry" />
        </mxCell>
        <mxCell id="7nrROqvI5BCmx5nNmekA-86" style="rounded=0;orthogonalLoop=1;jettySize=auto;html=1;exitX=1;exitY=0.5;exitDx=0;exitDy=0;shape=link;" edge="1" parent="1" source="7nrROqvI5BCmx5nNmekA-38" target="7nrROqvI5BCmx5nNmekA-83">
          <mxGeometry relative="1" as="geometry" />
        </mxCell>
        <mxCell id="7nrROqvI5BCmx5nNmekA-95" style="rounded=0;orthogonalLoop=1;jettySize=auto;html=1;exitX=1;exitY=0;exitDx=0;exitDy=0;entryX=0;entryY=0.5;entryDx=0;entryDy=0;endArrow=none;endFill=0;" edge="1" parent="1" source="7nrROqvI5BCmx5nNmekA-38" target="7nrROqvI5BCmx5nNmekA-93">
          <mxGeometry relative="1" as="geometry" />
        </mxCell>
        <mxCell id="7nrROqvI5BCmx5nNmekA-105" style="edgeStyle=orthogonalEdgeStyle;rounded=0;orthogonalLoop=1;jettySize=auto;html=1;exitX=0.5;exitY=0;exitDx=0;exitDy=0;entryX=0;entryY=0.5;entryDx=0;entryDy=0;endArrow=none;endFill=0;" edge="1" parent="1" source="7nrROqvI5BCmx5nNmekA-38" target="7nrROqvI5BCmx5nNmekA-21">
          <mxGeometry relative="1" as="geometry" />
        </mxCell>
        <mxCell id="7nrROqvI5BCmx5nNmekA-38" value="TURISTICKI&lt;br&gt;MESTA" style="rounded=0;whiteSpace=wrap;html=1;" vertex="1" parent="1">
          <mxGeometry x="335" y="340" width="115" height="40" as="geometry" />
        </mxCell>
        <mxCell id="7nrROqvI5BCmx5nNmekA-44" style="rounded=0;orthogonalLoop=1;jettySize=auto;html=1;exitX=0.75;exitY=0;exitDx=0;exitDy=0;entryX=0;entryY=1;entryDx=0;entryDy=0;endArrow=none;endFill=0;" edge="1" parent="1" source="7nrROqvI5BCmx5nNmekA-39" target="7nrROqvI5BCmx5nNmekA-42">
          <mxGeometry relative="1" as="geometry" />
        </mxCell>
        <mxCell id="7nrROqvI5BCmx5nNmekA-65" style="rounded=0;orthogonalLoop=1;jettySize=auto;html=1;exitX=0;exitY=0;exitDx=0;exitDy=0;entryX=0.5;entryY=1;entryDx=0;entryDy=0;endArrow=none;endFill=0;" edge="1" parent="1" source="7nrROqvI5BCmx5nNmekA-39" target="7nrROqvI5BCmx5nNmekA-64">
          <mxGeometry relative="1" as="geometry" />
        </mxCell>
        <mxCell id="7nrROqvI5BCmx5nNmekA-66" style="edgeStyle=orthogonalEdgeStyle;rounded=0;orthogonalLoop=1;jettySize=auto;html=1;exitX=0.25;exitY=0;exitDx=0;exitDy=0;entryX=1;entryY=0.5;entryDx=0;entryDy=0;endArrow=none;endFill=0;" edge="1" parent="1" source="7nrROqvI5BCmx5nNmekA-39" target="7nrROqvI5BCmx5nNmekA-64">
          <mxGeometry relative="1" as="geometry" />
        </mxCell>
        <mxCell id="7nrROqvI5BCmx5nNmekA-39" value="GRADOVI" style="rounded=0;whiteSpace=wrap;html=1;" vertex="1" parent="1">
          <mxGeometry x="175" y="510" width="120" height="40" as="geometry" />
        </mxCell>
        <mxCell id="7nrROqvI5BCmx5nNmekA-45" style="rounded=0;orthogonalLoop=1;jettySize=auto;html=1;exitX=0.25;exitY=0;exitDx=0;exitDy=0;entryX=1;entryY=1;entryDx=0;entryDy=0;endArrow=none;endFill=0;" edge="1" parent="1" source="7nrROqvI5BCmx5nNmekA-40" target="7nrROqvI5BCmx5nNmekA-42">
          <mxGeometry relative="1" as="geometry" />
        </mxCell>
        <mxCell id="7nrROqvI5BCmx5nNmekA-40" value="KONKRETNI&lt;br&gt;OBIJEKTI" style="rounded=0;whiteSpace=wrap;html=1;" vertex="1" parent="1">
          <mxGeometry x="435" y="500" width="130" height="40" as="geometry" />
        </mxCell>
        <mxCell id="7nrROqvI5BCmx5nNmekA-42" value="d" style="ellipse;whiteSpace=wrap;html=1;" vertex="1" parent="1">
          <mxGeometry x="360" y="420" width="40" height="40" as="geometry" />
        </mxCell>
        <mxCell id="7nrROqvI5BCmx5nNmekA-46" value="" style="shape=requiredInterface;html=1;verticalLabelPosition=bottom;sketch=0;rotation=115;" vertex="1" parent="1">
          <mxGeometry x="320" y="460" width="20" height="40" as="geometry" />
        </mxCell>
        <mxCell id="7nrROqvI5BCmx5nNmekA-47" value="" style="shape=requiredInterface;html=1;verticalLabelPosition=bottom;sketch=0;rotation=50;" vertex="1" parent="1">
          <mxGeometry x="422.35233835814" y="449.99544310518047" width="20" height="40" as="geometry" />
        </mxCell>
        <mxCell id="7nrROqvI5BCmx5nNmekA-53" style="rounded=0;orthogonalLoop=1;jettySize=auto;html=1;exitX=0;exitY=1;exitDx=0;exitDy=0;entryX=1;entryY=0;entryDx=0;entryDy=0;endArrow=none;endFill=0;" edge="1" parent="1" source="7nrROqvI5BCmx5nNmekA-48" target="7nrROqvI5BCmx5nNmekA-40">
          <mxGeometry relative="1" as="geometry" />
        </mxCell>
        <mxCell id="7nrROqvI5BCmx5nNmekA-48" value="ime" style="ellipse;whiteSpace=wrap;html=1;" vertex="1" parent="1">
          <mxGeometry x="345" y="650" width="100" height="50" as="geometry" />
        </mxCell>
        <mxCell id="7nrROqvI5BCmx5nNmekA-54" value="" style="edgeStyle=orthogonalEdgeStyle;rounded=0;orthogonalLoop=1;jettySize=auto;html=1;endArrow=none;endFill=0;" edge="1" parent="1" source="7nrROqvI5BCmx5nNmekA-49" target="7nrROqvI5BCmx5nNmekA-40">
          <mxGeometry relative="1" as="geometry" />
        </mxCell>
        <mxCell id="7nrROqvI5BCmx5nNmekA-49" value="adresa" style="ellipse;whiteSpace=wrap;html=1;" vertex="1" parent="1">
          <mxGeometry x="450" y="610" width="100" height="50" as="geometry" />
        </mxCell>
        <mxCell id="7nrROqvI5BCmx5nNmekA-55" style="rounded=0;orthogonalLoop=1;jettySize=auto;html=1;exitX=0;exitY=0;exitDx=0;exitDy=0;entryX=1;entryY=0.75;entryDx=0;entryDy=0;endArrow=none;endFill=0;" edge="1" parent="1" source="7nrROqvI5BCmx5nNmekA-50" target="7nrROqvI5BCmx5nNmekA-40">
          <mxGeometry relative="1" as="geometry" />
        </mxCell>
        <mxCell id="7nrROqvI5BCmx5nNmekA-50" value="&lt;u&gt;geografska&lt;br&gt;lokacija&lt;/u&gt;" style="ellipse;whiteSpace=wrap;html=1;" vertex="1" parent="1">
          <mxGeometry x="530" y="690" width="100" height="50" as="geometry" />
        </mxCell>
        <mxCell id="7nrROqvI5BCmx5nNmekA-56" style="edgeStyle=orthogonalEdgeStyle;rounded=0;orthogonalLoop=1;jettySize=auto;html=1;exitX=0;exitY=1;exitDx=0;exitDy=0;endArrow=none;endFill=0;" edge="1" parent="1" source="7nrROqvI5BCmx5nNmekA-51" target="7nrROqvI5BCmx5nNmekA-50">
          <mxGeometry relative="1" as="geometry" />
        </mxCell>
        <mxCell id="7nrROqvI5BCmx5nNmekA-51" value="&lt;u&gt;geografska sifra&lt;/u&gt;" style="ellipse;whiteSpace=wrap;html=1;" vertex="1" parent="1">
          <mxGeometry x="365" y="770" width="100" height="50" as="geometry" />
        </mxCell>
        <mxCell id="7nrROqvI5BCmx5nNmekA-57" style="edgeStyle=orthogonalEdgeStyle;rounded=0;orthogonalLoop=1;jettySize=auto;html=1;exitX=0;exitY=0;exitDx=0;exitDy=0;entryX=1;entryY=1;entryDx=0;entryDy=0;endArrow=none;endFill=0;" edge="1" parent="1" source="7nrROqvI5BCmx5nNmekA-52" target="7nrROqvI5BCmx5nNmekA-50">
          <mxGeometry relative="1" as="geometry" />
        </mxCell>
        <mxCell id="7nrROqvI5BCmx5nNmekA-52" value="geografska&lt;br&gt;dolzina" style="ellipse;whiteSpace=wrap;html=1;" vertex="1" parent="1">
          <mxGeometry x="620" y="780" width="100" height="50" as="geometry" />
        </mxCell>
        <mxCell id="7nrROqvI5BCmx5nNmekA-61" style="edgeStyle=orthogonalEdgeStyle;rounded=0;orthogonalLoop=1;jettySize=auto;html=1;exitX=1;exitY=0.5;exitDx=0;exitDy=0;entryX=0;entryY=0.5;entryDx=0;entryDy=0;endArrow=none;endFill=0;" edge="1" parent="1" source="7nrROqvI5BCmx5nNmekA-58" target="7nrROqvI5BCmx5nNmekA-39">
          <mxGeometry relative="1" as="geometry" />
        </mxCell>
        <mxCell id="7nrROqvI5BCmx5nNmekA-58" value="ime" style="ellipse;whiteSpace=wrap;html=1;" vertex="1" parent="1">
          <mxGeometry x="30" y="500" width="100" height="50" as="geometry" />
        </mxCell>
        <mxCell id="7nrROqvI5BCmx5nNmekA-62" style="rounded=0;orthogonalLoop=1;jettySize=auto;html=1;exitX=1;exitY=0;exitDx=0;exitDy=0;entryX=0;entryY=1;entryDx=0;entryDy=0;endArrow=none;endFill=0;" edge="1" parent="1" source="7nrROqvI5BCmx5nNmekA-59" target="7nrROqvI5BCmx5nNmekA-39">
          <mxGeometry relative="1" as="geometry" />
        </mxCell>
        <mxCell id="7nrROqvI5BCmx5nNmekA-59" value="drzava" style="ellipse;whiteSpace=wrap;html=1;" vertex="1" parent="1">
          <mxGeometry x="20" y="570" width="100" height="50" as="geometry" />
        </mxCell>
        <mxCell id="7nrROqvI5BCmx5nNmekA-64" value="" style="rhombus;whiteSpace=wrap;html=1;" vertex="1" parent="1">
          <mxGeometry x="110" y="410" width="40" height="40" as="geometry" />
        </mxCell>
        <mxCell id="7nrROqvI5BCmx5nNmekA-67" value="sosetstvo" style="text;html=1;align=center;verticalAlign=middle;resizable=0;points=[];autosize=1;strokeColor=none;fillColor=none;" vertex="1" parent="1">
          <mxGeometry x="115" y="388" width="70" height="30" as="geometry" />
        </mxCell>
        <mxCell id="7nrROqvI5BCmx5nNmekA-68" value="N" style="text;html=1;align=center;verticalAlign=middle;resizable=0;points=[];autosize=1;strokeColor=none;fillColor=none;" vertex="1" parent="1">
          <mxGeometry x="195" y="468" width="30" height="30" as="geometry" />
        </mxCell>
        <mxCell id="7nrROqvI5BCmx5nNmekA-70" style="rounded=0;orthogonalLoop=1;jettySize=auto;html=1;exitX=1;exitY=1;exitDx=0;exitDy=0;entryX=0;entryY=0;entryDx=0;entryDy=0;endArrow=none;endFill=0;" edge="1" parent="1" source="7nrROqvI5BCmx5nNmekA-69" target="7nrROqvI5BCmx5nNmekA-64">
          <mxGeometry relative="1" as="geometry" />
        </mxCell>
        <mxCell id="7nrROqvI5BCmx5nNmekA-69" value="reastojanije" style="ellipse;whiteSpace=wrap;html=1;" vertex="1" parent="1">
          <mxGeometry x="20" y="350" width="100" height="50" as="geometry" />
        </mxCell>
        <mxCell id="7nrROqvI5BCmx5nNmekA-71" value="M" style="text;html=1;align=center;verticalAlign=middle;resizable=0;points=[];autosize=1;strokeColor=none;fillColor=none;" vertex="1" parent="1">
          <mxGeometry x="125" y="478" width="30" height="30" as="geometry" />
        </mxCell>
        <mxCell id="7nrROqvI5BCmx5nNmekA-85" style="rounded=0;orthogonalLoop=1;jettySize=auto;html=1;exitX=0.25;exitY=0;exitDx=0;exitDy=0;entryX=1;entryY=1;entryDx=0;entryDy=0;endArrow=none;endFill=0;" edge="1" parent="1" source="7nrROqvI5BCmx5nNmekA-72" target="7nrROqvI5BCmx5nNmekA-83">
          <mxGeometry relative="1" as="geometry" />
        </mxCell>
        <mxCell id="7nrROqvI5BCmx5nNmekA-72" value="TURISTICKA&lt;br&gt;AGENCIJA" style="rounded=0;whiteSpace=wrap;html=1;" vertex="1" parent="1">
          <mxGeometry x="655" y="540" width="115" height="40" as="geometry" />
        </mxCell>
        <mxCell id="7nrROqvI5BCmx5nNmekA-75" style="edgeStyle=orthogonalEdgeStyle;rounded=0;orthogonalLoop=1;jettySize=auto;html=1;exitX=0;exitY=0.5;exitDx=0;exitDy=0;entryX=1;entryY=0.25;entryDx=0;entryDy=0;endArrow=none;endFill=0;" edge="1" parent="1" source="7nrROqvI5BCmx5nNmekA-73" target="7nrROqvI5BCmx5nNmekA-72">
          <mxGeometry relative="1" as="geometry" />
        </mxCell>
        <mxCell id="7nrROqvI5BCmx5nNmekA-73" value="ime" style="ellipse;whiteSpace=wrap;html=1;" vertex="1" parent="1">
          <mxGeometry x="920" y="680" width="100" height="50" as="geometry" />
        </mxCell>
        <mxCell id="7nrROqvI5BCmx5nNmekA-76" style="edgeStyle=orthogonalEdgeStyle;rounded=0;orthogonalLoop=1;jettySize=auto;html=1;exitX=0;exitY=0;exitDx=0;exitDy=0;entryX=1;entryY=0.75;entryDx=0;entryDy=0;endArrow=none;endFill=0;" edge="1" parent="1" source="7nrROqvI5BCmx5nNmekA-74" target="7nrROqvI5BCmx5nNmekA-72">
          <mxGeometry relative="1" as="geometry" />
        </mxCell>
        <mxCell id="7nrROqvI5BCmx5nNmekA-74" value="lokacija" style="ellipse;whiteSpace=wrap;html=1;" vertex="1" parent="1">
          <mxGeometry x="670" y="680" width="100" height="50" as="geometry" />
        </mxCell>
        <mxCell id="7nrROqvI5BCmx5nNmekA-84" style="rounded=0;orthogonalLoop=1;jettySize=auto;html=1;exitX=0;exitY=0.25;exitDx=0;exitDy=0;shape=link;" edge="1" parent="1" source="7nrROqvI5BCmx5nNmekA-82" target="7nrROqvI5BCmx5nNmekA-83">
          <mxGeometry relative="1" as="geometry" />
        </mxCell>
        <mxCell id="7nrROqvI5BCmx5nNmekA-96" style="rounded=0;orthogonalLoop=1;jettySize=auto;html=1;exitX=0;exitY=0;exitDx=0;exitDy=0;entryX=1;entryY=0.5;entryDx=0;entryDy=0;endArrow=none;endFill=0;" edge="1" parent="1" source="7nrROqvI5BCmx5nNmekA-82" target="7nrROqvI5BCmx5nNmekA-93">
          <mxGeometry relative="1" as="geometry" />
        </mxCell>
        <mxCell id="7nrROqvI5BCmx5nNmekA-82" value="Patuvanje" style="rounded=0;whiteSpace=wrap;html=1;" vertex="1" parent="1">
          <mxGeometry x="725" y="340" width="125" height="50" as="geometry" />
        </mxCell>
        <mxCell id="7nrROqvI5BCmx5nNmekA-117" style="rounded=0;orthogonalLoop=1;jettySize=auto;html=1;exitX=0.5;exitY=0;exitDx=0;exitDy=0;entryX=0.75;entryY=1;entryDx=0;entryDy=0;endArrow=none;endFill=0;" edge="1" parent="1" source="7nrROqvI5BCmx5nNmekA-83" target="7nrROqvI5BCmx5nNmekA-1">
          <mxGeometry relative="1" as="geometry" />
        </mxCell>
        <mxCell id="7nrROqvI5BCmx5nNmekA-83" value="" style="rhombus;whiteSpace=wrap;html=1;" vertex="1" parent="1">
          <mxGeometry x="620" y="450" width="40" height="40" as="geometry" />
        </mxCell>
        <mxCell id="7nrROqvI5BCmx5nNmekA-90" style="edgeStyle=orthogonalEdgeStyle;rounded=0;orthogonalLoop=1;jettySize=auto;html=1;exitX=0;exitY=0.5;exitDx=0;exitDy=0;entryX=1;entryY=0.25;entryDx=0;entryDy=0;endArrow=none;endFill=0;" edge="1" parent="1" source="7nrROqvI5BCmx5nNmekA-87" target="7nrROqvI5BCmx5nNmekA-82">
          <mxGeometry relative="1" as="geometry" />
        </mxCell>
        <mxCell id="7nrROqvI5BCmx5nNmekA-87" value="poceten&lt;br&gt;datum" style="ellipse;whiteSpace=wrap;html=1;" vertex="1" parent="1">
          <mxGeometry x="980" y="330" width="90" height="40" as="geometry" />
        </mxCell>
        <mxCell id="7nrROqvI5BCmx5nNmekA-91" style="edgeStyle=orthogonalEdgeStyle;rounded=0;orthogonalLoop=1;jettySize=auto;html=1;exitX=0;exitY=0.5;exitDx=0;exitDy=0;endArrow=none;endFill=0;" edge="1" parent="1" source="7nrROqvI5BCmx5nNmekA-88" target="7nrROqvI5BCmx5nNmekA-82">
          <mxGeometry relative="1" as="geometry" />
        </mxCell>
        <mxCell id="7nrROqvI5BCmx5nNmekA-88" value="krajen datum" style="ellipse;whiteSpace=wrap;html=1;" vertex="1" parent="1">
          <mxGeometry x="990" y="385" width="90" height="30" as="geometry" />
        </mxCell>
        <mxCell id="7nrROqvI5BCmx5nNmekA-92" style="edgeStyle=orthogonalEdgeStyle;rounded=0;orthogonalLoop=1;jettySize=auto;html=1;exitX=0;exitY=0;exitDx=0;exitDy=0;entryX=1;entryY=1;entryDx=0;entryDy=0;endArrow=none;endFill=0;" edge="1" parent="1" source="7nrROqvI5BCmx5nNmekA-89" target="7nrROqvI5BCmx5nNmekA-82">
          <mxGeometry relative="1" as="geometry" />
        </mxCell>
        <mxCell id="7nrROqvI5BCmx5nNmekA-89" value="cena" style="ellipse;whiteSpace=wrap;html=1;" vertex="1" parent="1">
          <mxGeometry x="990" y="438" width="90" height="40" as="geometry" />
        </mxCell>
        <mxCell id="7nrROqvI5BCmx5nNmekA-93" value="" style="rhombus;whiteSpace=wrap;html=1;" vertex="1" parent="1">
          <mxGeometry x="505" y="310" width="40" height="40" as="geometry" />
        </mxCell>
        <mxCell id="7nrROqvI5BCmx5nNmekA-98" value="P" style="text;html=1;align=center;verticalAlign=middle;resizable=0;points=[];autosize=1;strokeColor=none;fillColor=none;" vertex="1" parent="1">
          <mxGeometry x="865" y="190" width="30" height="30" as="geometry" />
        </mxCell>
        <mxCell id="7nrROqvI5BCmx5nNmekA-100" style="rounded=0;orthogonalLoop=1;jettySize=auto;html=1;exitX=1;exitY=0.5;exitDx=0;exitDy=0;entryX=0;entryY=0.5;entryDx=0;entryDy=0;shape=link;" edge="1" parent="1" source="7nrROqvI5BCmx5nNmekA-99" target="7nrROqvI5BCmx5nNmekA-40">
          <mxGeometry relative="1" as="geometry" />
        </mxCell>
        <mxCell id="7nrROqvI5BCmx5nNmekA-101" style="rounded=0;orthogonalLoop=1;jettySize=auto;html=1;exitX=0;exitY=0.5;exitDx=0;exitDy=0;entryX=1;entryY=0.5;entryDx=0;entryDy=0;endArrow=none;endFill=0;" edge="1" parent="1" source="7nrROqvI5BCmx5nNmekA-99" target="7nrROqvI5BCmx5nNmekA-39">
          <mxGeometry relative="1" as="geometry" />
        </mxCell>
        <mxCell id="7nrROqvI5BCmx5nNmekA-99" value="" style="rhombus;whiteSpace=wrap;html=1;" vertex="1" parent="1">
          <mxGeometry x="345" y="520" width="40" height="40" as="geometry" />
        </mxCell>
        <mxCell id="7nrROqvI5BCmx5nNmekA-102" value="ima" style="text;html=1;align=center;verticalAlign=middle;resizable=0;points=[];autosize=1;strokeColor=none;fillColor=none;" vertex="1" parent="1">
          <mxGeometry x="340" y="488" width="40" height="30" as="geometry" />
        </mxCell>
        <mxCell id="7nrROqvI5BCmx5nNmekA-103" value="1" style="text;html=1;align=center;verticalAlign=middle;resizable=0;points=[];autosize=1;strokeColor=none;fillColor=none;" vertex="1" parent="1">
          <mxGeometry x="295" y="538" width="30" height="30" as="geometry" />
        </mxCell>
        <mxCell id="7nrROqvI5BCmx5nNmekA-104" value="M" style="text;html=1;align=center;verticalAlign=middle;resizable=0;points=[];autosize=1;strokeColor=none;fillColor=none;" vertex="1" parent="1">
          <mxGeometry x="405" y="528" width="30" height="30" as="geometry" />
        </mxCell>
        <mxCell id="7nrROqvI5BCmx5nNmekA-106" value="P" style="text;html=1;align=center;verticalAlign=middle;resizable=0;points=[];autosize=1;strokeColor=none;fillColor=none;" vertex="1" parent="1">
          <mxGeometry x="365" y="310" width="30" height="30" as="geometry" />
        </mxCell>
        <mxCell id="7nrROqvI5BCmx5nNmekA-107" value="kreira&amp;nbsp;&lt;br&gt;lista" style="text;html=1;align=center;verticalAlign=middle;resizable=0;points=[];autosize=1;strokeColor=none;fillColor=none;" vertex="1" parent="1">
          <mxGeometry x="670" y="193" width="60" height="40" as="geometry" />
        </mxCell>
        <mxCell id="7nrROqvI5BCmx5nNmekA-108" value="faku poseta" style="text;html=1;align=center;verticalAlign=middle;resizable=0;points=[];autosize=1;strokeColor=none;fillColor=none;" vertex="1" parent="1">
          <mxGeometry x="490" y="280" width="90" height="30" as="geometry" />
        </mxCell>
        <mxCell id="7nrROqvI5BCmx5nNmekA-109" value="org" style="text;html=1;align=center;verticalAlign=middle;resizable=0;points=[];autosize=1;strokeColor=none;fillColor=none;" vertex="1" parent="1">
          <mxGeometry x="660" y="458" width="40" height="30" as="geometry" />
        </mxCell>
        <mxCell id="7nrROqvI5BCmx5nNmekA-110" value="N" style="text;html=1;align=center;verticalAlign=middle;resizable=0;points=[];autosize=1;strokeColor=none;fillColor=none;" vertex="1" parent="1">
          <mxGeometry x="515" y="210" width="30" height="30" as="geometry" />
        </mxCell>
        <mxCell id="7nrROqvI5BCmx5nNmekA-111" value="M" style="text;html=1;align=center;verticalAlign=middle;resizable=0;points=[];autosize=1;strokeColor=none;fillColor=none;" vertex="1" parent="1">
          <mxGeometry x="675" y="308" width="30" height="30" as="geometry" />
        </mxCell>
        <mxCell id="7nrROqvI5BCmx5nNmekA-112" value="P" style="text;html=1;align=center;verticalAlign=middle;resizable=0;points=[];autosize=1;strokeColor=none;fillColor=none;" vertex="1" parent="1">
          <mxGeometry x="435" y="308" width="30" height="30" as="geometry" />
        </mxCell>
        <mxCell id="7nrROqvI5BCmx5nNmekA-113" value="P" style="text;html=1;align=center;verticalAlign=middle;resizable=0;points=[];autosize=1;strokeColor=none;fillColor=none;" vertex="1" parent="1">
          <mxGeometry x="455" y="368" width="30" height="30" as="geometry" />
        </mxCell>
        <mxCell id="7nrROqvI5BCmx5nNmekA-114" value="N" style="text;html=1;align=center;verticalAlign=middle;resizable=0;points=[];autosize=1;strokeColor=none;fillColor=none;" vertex="1" parent="1">
          <mxGeometry x="715" y="388" width="30" height="30" as="geometry" />
        </mxCell>
        <mxCell id="7nrROqvI5BCmx5nNmekA-115" value="M" style="text;html=1;align=center;verticalAlign=middle;resizable=0;points=[];autosize=1;strokeColor=none;fillColor=none;" vertex="1" parent="1">
          <mxGeometry x="635" y="498" width="30" height="30" as="geometry" />
        </mxCell>
        <mxCell id="7nrROqvI5BCmx5nNmekA-118" value="Z" style="text;html=1;align=center;verticalAlign=middle;resizable=0;points=[];autosize=1;strokeColor=none;fillColor=none;" vertex="1" parent="1">
          <mxGeometry x="565" y="203" width="30" height="30" as="geometry" />
        </mxCell>
      </root>
    </mxGraphModel>
  </diagram>
</mxfile>
